<svg width="48" height="45" viewBox="0 0 48 45" xmlns="http://www.w3.org/2000/svg"><g transform="translate(-2 -4)" fill="none" fill-rule="evenodd"><circle fill="none" cx="26" cy="26" r="26"/><g transform="translate(2 4)" fill="#333" fill-rule="nonzero"><path d="M47.65623 20.3530662L24.6562797.24592796c-.3749997-.32790395-.9374993-.32790395-1.312499 0L.34373663 20.3530662c-.31443724.2758766-.42581216.7186742-.28124977 1.1114238.14653113.3927496.51956208.6528861.93749925.6528861H6.0000446v21.1125281c0 .5557119.44728089 1.0053899 1.00003045 1.0053899H41.0000791c.5527495 0 1.0000304-.449678 1.0000304-1.0053899V22.1173761h4.9999647c.4179372 0 .7910619-.2601365.9374993-.6528861.1444686-.3927496.0330937-.8355472-.2813435-1.1114238zm-6.6562447-.2463757c-.5527496 0-1.0000304.449678-1.0000304 1.0053899v21.1125282H8.00001175V21.1120804c0-.5557119-.44728089-1.0053899-1.00003045-1.0053899H3.67382772L24.0000302 2.33719928 44.3262326 20.1066905h-3.3262473z"/><circle cx="28.2352941" cy="22.5882353" r="1.88235294"/><path d="M20.3293632,23.2469715 C20.3293632,24.0264484 20.4568005,24.7958313 20.7115779,25.5420172 L14.4209535,31.8326711 C14.2268374,32.0267882 14.1176471,32.2896226 14.1176471,32.5646865 L14.1176471,35.6705591 C14.1176471,36.2428162 14.5807111,36.7058824 15.1529654,36.7058824 L18.2588235,36.7058824 C18.533789,36.7058824 18.7967193,36.5966915 18.9908355,36.4025745 L25.2814598,30.1129882 C26.0276422,30.3657286 26.7959539,30.4941371 27.5764949,30.4941371 C31.5720842,30.4941371 34.8235294,27.2426766 34.8235294,23.2470685 C34.8235294,19.2514604 31.5720842,16 27.5764949,16 C23.5809055,16 20.3293632,19.2513634 20.3293632,23.2469715 Z M27.5763978,18.0704524 C30.4315549,18.0704524 32.7527956,20.3927716 32.7527956,23.2468744 C32.7527956,26.1009773 30.4314578,28.4233935 27.5763978,28.4233935 C26.8525387,28.4233935 26.1386767,28.266644 25.4552908,27.9573185 C25.0590028,27.777372 24.5979769,27.8632688 24.2966117,28.1686149 L17.8301181,34.6351388 L16.1881868,34.6351388 L16.1881868,32.9931998 L22.6546804,26.5266759 C22.960025,26.2223975 23.0429126,25.7613695 22.8670434,25.369059 C22.5576223,24.6835346 22.3999029,23.9687957 22.3999029,23.2468744 C22.3999029,20.3928686 24.7212407,18.0704524 27.5763978,18.0704524 Z"/></g></g></svg>